# xmcd CD database file
#
# Track frame offsets:
#	150
#	82919
#	93989
#	134178
#	165280
#	221663
#
# Disc length: 3720 seconds
#
# Revision: 0
# Processed by: cddbd v1.5.2PL0 Copyright (c) Steve Scherf et al.
# Submitted via: CDex 1.51
#
DISCID=490e8606
DTITLE=Masada - Live At Slim's - 5/30/98 Disc 2
DYEAR=1900
DGENRE=Jazz
TTITLE0=Ne'eman
TTITLE1=Karet
TTITLE2=Tevel
TTITLE3=Meholalot
TTITLE4=Hadasha
TTITLE5=Beer Sheba
EXTD=
EXTT0=
EXTT1=
EXTT2=
EXTT3=
EXTT4=
EXTT5=
PLAYORDER=
